<?xml version="1.0" encoding="UTF-8" standalone="no"?>
<svg width="757px" height="77px" viewBox="0 0 757 77" version="1.1" xmlns="http://www.w3.org/2000/svg" xmlns:xlink="http://www.w3.org/1999/xlink" xmlns:sketch="http://www.bohemiancoding.com/sketch/ns">
    <!-- Generator: Sketch 3.0.1 (7597) - http://www.bohemiancoding.com/sketch -->
    <title>Slice 1</title>
    <description>Created with Sketch.</description>
    <defs></defs>
    <g id="Page-1" stroke="none" stroke-width="1" fill="none" fill-rule="evenodd" sketch:type="MSPage">
        <g id="Group" sketch:type="MSLayerGroup" fill="#000000">
            <g id="icon-rss-link" transform="translate(1.000000, 4.000000)" sketch:type="MSShapeGroup">
                <g id="icon-rss">
                    <path d="M3.003,16.332 C1.527,16.332 0.331,17.528 0.334,19 C0.334,20.472 1.529,21.668 3.003,21.665 C4.474,21.668 5.67,20.473 5.667,19 C5.67,17.524 4.474,16.329 3.003,16.332 L3.003,16.332 Z" id="Shape"></path>
                    <path d="M3,0.333 C1.528,0.333 0.333,1.528 0.333,3 C0.333,4.472 1.528,5.667 3,5.667 C10.352,5.667 16.333,11.648 16.333,19 C16.333,20.472 17.528,21.667 19,21.667 C20.472,21.667 21.667,20.472 21.667,19 C21.667,8.707 13.294,0.333 3,0.333 L3,0.333 Z" id="Shape"></path>
                    <path d="M3,8.333 C1.528,8.333 0.333,9.528 0.333,11 C0.333,12.472 1.528,13.667 3,13.667 C5.94,13.667 8.333,16.059 8.333,19 C8.333,20.472 9.528,21.667 11,21.667 C12.472,21.667 13.667,20.472 13.667,19 C13.667,13.119 8.882,8.333 3,8.333 L3,8.333 Z" id="Shape"></path>
                </g>
            </g>
            <g id="icon-location-link" transform="translate(49.000000, 3.000000)" sketch:type="MSShapeGroup">
                <g id="icon-location">
                    <path d="M18.543,3.072 C14.378,-1.025 7.624,-1.025 3.459,3.072 C-0.706,7.171 -0.706,13.815 3.459,17.912 L11,25.332 L18.543,17.912 C22.708,13.815 22.708,7.171 18.543,3.072 L18.543,3.072 Z M11,13.999 C10.109,13.999 9.273,13.652 8.643,13.023 C7.343,11.723 7.343,9.608 8.643,8.308 C9.272,7.679 10.11,7.332 11,7.332 C11.89,7.332 12.728,7.679 13.357,8.308 C14.657,9.608 14.657,11.724 13.357,13.023 C12.728,13.652 11.89,13.999 11,13.999 L11,13.999 Z" id="Shape"></path>
                </g>
            </g>
            <g id="icon-heart-link" transform="translate(96.000000, 7.000000)" sketch:type="MSShapeGroup">
                <g id="icon-heart">
                    <path d="M12,5.833 C12,2.612 9.388,-1.77635684e-15 6.167,-1.77635684e-15 C2.946,-1.77635684e-15 0.334,2.612 0.334,5.833 C0.334,7.336 0.546,9.545 2.667,11.666 C4.788,13.787 12,18.666 12,18.666 C12,18.666 19.212,13.787 21.333,11.666 C23.454,9.545 23.666,7.335 23.666,5.833 C23.666,2.612 21.054,-1.77635684e-15 17.833,-1.77635684e-15 C14.612,-1.77635684e-15 12,2.612 12,5.833 L12,5.833 Z" id="Shape"></path>
                </g>
            </g>
            <g id="icon-flash-link" transform="translate(148.000000, 3.000000)" sketch:type="MSShapeGroup">
                <g id="icon-flash">
                    <path d="M15.336,12.044 L9.681,8.767 L12.532,1.926 C12.62,1.747 12.669,1.546 12.669,1.334 C12.669,0.598 12.076,0.001 11.34,0.001 C11.008,0.006 10.731,0.112 10.511,0.286 C10.467,0.321 10.44,0.342 10.418,0.366 L0.418,9.833 C0.113,10.122 -0.038,10.538 0.01,10.956 C0.058,11.373 0.302,11.744 0.665,11.956 L6.321,15.236 L3.437,22.156 C3.193,22.737 3.392,23.409 3.909,23.767 C4.14,23.924 4.405,24.002 4.668,24.002 C4.999,24.002 5.329,23.878 5.585,23.637 L15.585,14.168 C15.89,13.879 16.041,13.463 15.993,13.045 C15.944,12.628 15.7,12.257 15.337,12.046 L15.336,12.044 Z" id="Shape"></path>
                </g>
            </g>
            <g id="icon-social-twitter-link" transform="translate(192.000000, 5.000000)" sketch:type="MSShapeGroup">
                <g id="icon-social-twitter">
                    <path d="M21.187,3.349 C22.264,2.688 22.978,1.785 23.327,0.637 C22.279,1.193 21.235,1.574 20.192,1.785 C19.255,0.777 18.068,0.265 16.645,0.265 C15.254,0.265 14.08,0.753 13.121,1.702 C12.168,2.658 11.686,3.819 11.686,5.175 C11.686,5.587 11.738,5.955 11.842,6.267 C7.741,6.127 4.346,4.426 1.671,1.151 C1.218,1.952 0.991,2.768 0.991,3.612 C0.991,5.347 1.723,6.721 3.184,7.731 C2.351,7.66 1.616,7.45 0.991,7.104 C0.991,8.343 1.355,9.377 2.084,10.288 C2.816,11.189 3.756,11.764 4.904,12.009 C4.488,12.116 4.049,12.166 3.599,12.166 C3.183,12.166 2.888,12.131 2.714,12.055 C3.021,13.064 3.599,13.883 4.435,14.51 C5.268,15.139 6.227,15.471 7.304,15.501 C5.528,16.894 3.497,17.584 1.2,17.584 C0.637,17.584 0.239,17.576 -0.003,17.533 C2.26,19.002 4.778,19.732 7.565,19.732 C10.417,19.732 12.937,19.009 15.13,17.564 C17.323,16.127 18.942,14.353 19.982,12.265 C21.027,10.18 21.545,8.009 21.545,5.742 L21.545,5.118 C22.556,4.358 23.373,3.502 23.998,2.557 C23.091,2.948 22.154,3.213 21.185,3.348 L21.187,3.349 Z" id="Shape"></path>
                </g>
            </g>
            <g id="icon-social-facebook-link" transform="translate(245.000000, 4.000000)" sketch:type="MSShapeGroup">
                <g id="icon-social-facebook">
                    <path d="M8.333,8.333 L12.333,8.333 L12.333,12.333 L8.333,12.333 L8.333,21.666 L4.333,21.666 L4.333,12.333 L0.333,12.333 L0.333,8.333 L4.333,8.333 L4.333,6.66 C4.333,5.075 4.832,3.072 5.824,1.977 C6.816,0.88 8.055,0.333 9.539,0.333 L12.334,0.333 L12.334,4.333 L9.534,4.333 C8.87,4.333 8.334,4.869 8.334,5.532 L8.334,8.333 L8.333,8.333 Z" id="Shape"></path>
                </g>
            </g>
            <g id="icon-social-dribbble-link" transform="translate(288.000000, 3.000000)" sketch:type="MSShapeGroup">
                <g id="icon-social-dribbble">
                    <path d="M12,0 C5.384,0 0,5.383 0,12 C0,18.617 5.384,24 12,24 C18.616,24 24,18.617 24,12 C24,5.383 18.616,0 12,0 L12,0 Z M21.283,11.033 C18.93,10.648 16.571,10.784 14.343,11.382 C14.103,10.801 13.832,10.237 13.556,9.671 C15.452,8.591 17.136,7.122 18.507,5.322 C20.031,6.806 21.052,8.803 21.283,11.033 L21.283,11.033 Z M17.507,4.481 C16.255,6.138 14.707,7.493 12.972,8.493 C11.929,6.566 10.667,4.76 9.229,3.085 C10.105,2.813 11.036,2.666 12,2.666 C14.06,2.666 15.961,3.346 17.507,4.481 L17.507,4.481 Z M7.929,3.615 C9.421,5.302 10.72,7.142 11.785,9.104 C9.037,10.38 5.924,10.829 2.829,10.303 C3.373,7.354 5.309,4.892 7.929,3.615 L7.929,3.615 Z M2.667,12 C2.667,11.867 2.682,11.74 2.687,11.608 C3.588,11.756 4.491,11.859 5.386,11.859 C7.822,11.859 10.195,11.291 12.369,10.276 C12.612,10.773 12.856,11.268 13.069,11.779 C9.83,12.934 6.958,15.094 4.934,18.08 C3.526,16.444 2.667,14.323 2.667,12 L2.667,12 Z M5.857,19.009 C7.764,16.17 10.477,14.112 13.542,13.026 C14.453,15.498 15.039,18.086 15.265,20.731 C14.248,21.114 13.149,21.332 12,21.332 C9.647,21.332 7.5,20.451 5.857,19.008 L5.857,19.009 Z M16.543,20.145 C16.282,17.569 15.702,15.049 14.819,12.636 C16.904,12.097 19.115,11.988 21.314,12.383 C21.178,15.719 19.293,18.607 16.543,20.146 L16.543,20.145 Z" id="Shape"></path>
                </g>
            </g>
            <g id="icon-social-tumbler-link" transform="translate(342.000000, 7.000000)" sketch:type="MSShapeGroup">
                <g id="icon-social-tumbler">
                    <path d="M10.703,15.895 L10.703,13.14 C9.811,13.737 8.943,14.033 8.1,14.033 C7.703,14.033 7.259,13.908 6.761,13.664 C6.464,13.463 6.289,13.241 6.237,12.993 C6.09,12.694 6,12.049 6,11.054 L6,6.666 L10,6.666 L10,3.999 L6,3.999 L6,-0.476 L3.637,-0.476 C3.438,0.567 3.24,1.308 3.04,1.755 C2.795,2.302 2.397,2.798 1.852,3.243 C1.304,3.692 0.736,4.012 0.139,4.21 L0.139,6.666 L2,6.666 L2,12.694 C2,13.387 2.097,13.979 2.297,14.477 C2.445,14.874 2.742,15.27 3.192,15.668 C3.537,16.017 4.033,16.313 4.679,16.561 C5.472,16.761 6.164,16.858 6.762,16.858 C7.455,16.858 8.101,16.783 8.695,16.635 C9.39,16.486 10.059,16.238 10.703,15.894 L10.703,15.895 Z" id="Shape"></path>
                </g>
            </g>
            <g id="icon-social-skype-link" transform="translate(397.000000, 3.000000)" sketch:type="MSShapeGroup">
                <g id="icon-social-skype">
                    <path d="M23.557,13.749 C23.636,13.18 23.676,12.621 23.676,12.081 C23.676,8.832 22.548,6.022 20.325,3.73 C18.078,1.417 15.318,0.243 12.122,0.243 C11.75,0.243 11.394,0.26 11.054,0.294 C10.046,-0.173 8.963,-0.407 7.819,-0.407 C5.674,-0.407 3.748,0.406 2.254,1.946 C0.781,3.459 -0.001,5.393 -0.001,7.535 C-0.001,8.644 0.207,9.694 0.62,10.666 C0.557,11.142 0.527,11.617 0.527,12.082 C0.527,15.333 1.664,18.145 3.903,20.438 C6.16,22.747 8.927,23.918 12.122,23.918 C12.461,23.918 12.851,23.891 13.317,23.838 C14.237,24.215 15.196,24.406 16.178,24.406 C18.295,24.406 20.211,23.587 21.721,22.037 C23.21,20.513 24,18.57 24,16.422 C24,15.519 23.852,14.623 23.557,13.749 L23.557,13.749 Z M16.667,16.464 C16.288,17.033 15.695,17.505 14.882,17.884 C14.07,18.208 13.135,18.371 12.082,18.371 C10.81,18.371 9.741,18.14 8.877,17.679 C8.254,17.33 7.766,16.882 7.416,16.342 C7.037,15.746 6.845,15.193 6.845,14.678 C6.845,14.354 6.968,14.069 7.21,13.826 C7.455,13.581 7.765,13.461 8.143,13.461 C8.414,13.461 8.684,13.557 8.955,13.745 C9.171,13.961 9.332,14.233 9.44,14.557 C9.468,14.584 9.644,14.894 9.968,15.49 C10.104,15.678 10.347,15.867 10.697,16.057 C11.024,16.22 11.454,16.301 11.997,16.301 C12.728,16.301 13.337,16.14 13.824,15.816 C14.256,15.517 14.472,15.14 14.472,14.679 C14.472,14.3 14.349,14.015 14.107,13.827 C13.863,13.582 13.554,13.395 13.175,13.258 C13.067,13.23 12.924,13.195 12.75,13.158 C12.573,13.117 12.37,13.063 12.141,12.994 C11.912,12.926 11.714,12.879 11.553,12.853 C10.634,12.665 9.85,12.421 9.198,12.122 C8.63,11.906 8.117,11.529 7.657,10.987 C7.28,10.472 7.089,9.863 7.089,9.16 C7.089,8.456 7.292,7.835 7.698,7.293 C8.103,6.752 8.685,6.345 9.442,6.076 C10.201,5.777 11.067,5.631 12.041,5.631 C12.772,5.631 13.462,5.724 14.11,5.915 C14.734,6.131 15.234,6.388 15.613,6.687 C15.964,7.011 16.249,7.335 16.465,7.659 C16.654,8.091 16.75,8.444 16.75,8.714 C16.75,9.067 16.627,9.365 16.383,9.606 C16.115,9.878 15.802,10.014 15.451,10.014 C15.154,10.014 14.896,9.933 14.68,9.769 C14.544,9.634 14.369,9.392 14.152,9.04 C13.991,8.661 13.733,8.324 13.383,8.024 C13.059,7.781 12.558,7.66 11.88,7.66 C11.204,7.66 10.691,7.796 10.339,8.067 C9.96,8.312 9.771,8.595 9.771,8.919 C9.771,9.135 9.838,9.314 9.974,9.447 C10.11,9.638 10.283,9.787 10.502,9.895 C10.638,9.975 10.867,10.071 11.193,10.178 C11.274,10.206 11.456,10.254 11.74,10.319 C12.024,10.39 12.261,10.435 12.451,10.462 C12.828,10.543 13.479,10.718 14.399,10.99 C14.94,11.178 15.454,11.421 15.94,11.721 C16.401,12.044 16.739,12.41 16.956,12.814 C17.172,13.301 17.279,13.842 17.279,14.437 C17.276,15.168 17.074,15.845 16.668,16.468 L16.667,16.464 Z" id="Shape"></path>
                </g>
            </g>
            <g id="icon-social-linkedin-link" transform="translate(448.000000, 6.000000)" sketch:type="MSShapeGroup">
                <g id="icon-social-linkedin">
                    <path d="M3.667,18.333 L-0.333,18.333 L-0.333,5 L3.667,5 L3.667,18.333 L3.667,18.333 Z M18.333,18.333 L14.333,18.333 L14.333,11.21 C14.333,9.354 13.672,8.43 12.361,8.43 C11.322,8.43 10.664,8.947 10.333,9.983 L10.333,18.332 L6.333,18.332 C6.333,18.332 6.386,6.332 6.333,4.999 L9.49,4.999 L9.734,7.666 L9.817,7.666 C10.637,6.333 11.948,5.429 13.745,5.429 C15.112,5.429 16.217,5.809 17.061,6.764 C17.91,7.72 18.333,9.003 18.333,10.804 L18.333,18.333 L18.333,18.333 Z" id="Shape"></path>
                    <path d="M3.733,1.667 C3.733,2.772 2.808,3.667 1.666,3.667 C0.524,3.667 -0.401,2.772 -0.401,1.667 C-0.401,0.562 0.524,-0.333 1.666,-0.333 C2.807,-0.333 3.733,0.562 3.733,1.667 L3.733,1.667 Z" id="Shape"></path>
                </g>
            </g>
            <g id="icon-social-github-link" transform="translate(496.000000, 7.000000)" sketch:type="MSShapeGroup">
                <g id="icon-social-github">
                    <path d="M12.247,9.297 C12.606,9.297 12.903,9.474 13.162,9.825 C13.418,10.178 13.554,10.609 13.554,11.125 C13.554,11.638 13.418,12.073 13.162,12.422 C12.905,12.775 12.606,12.95 12.247,12.95 C11.876,12.95 11.551,12.775 11.294,12.422 C11.038,12.073 10.902,11.638 10.902,11.125 C10.902,10.609 11.038,10.178 11.294,9.825 C11.55,9.473 11.875,9.297 12.247,9.297 L12.247,9.297 Z M16.833,4.552 C17.828,5.633 18.333,6.945 18.333,8.489 C18.333,9.486 18.218,10.386 17.988,11.186 C17.755,11.982 17.463,12.631 17.116,13.131 C16.764,13.632 16.332,14.071 15.817,14.45 C15.302,14.831 14.829,15.106 14.397,15.281 C13.964,15.457 13.47,15.592 12.916,15.689 C12.36,15.784 11.948,15.837 11.659,15.853 C11.375,15.865 11.075,15.872 10.746,15.872 C10.673,15.872 10.422,15.877 10.017,15.892 C9.616,15.909 9.27,15.913 9.001,15.913 C8.732,15.913 8.386,15.909 7.985,15.892 C7.58,15.877 7.329,15.872 7.256,15.872 C6.928,15.872 6.627,15.865 6.343,15.853 C6.052,15.837 5.642,15.784 5.086,15.689 C4.522,15.593 4.038,15.457 3.605,15.281 C3.173,15.106 2.698,14.832 2.186,14.45 C1.67,14.071 1.238,13.633 0.886,13.131 C0.538,12.631 0.247,11.982 0.014,11.186 C-0.217,10.386 -0.331,9.486 -0.331,8.489 C-0.331,6.945 0.174,5.632 1.169,4.552 C1.06,4.497 1.056,3.956 1.158,2.929 C1.242,1.901 1.461,0.953 1.818,0.086 C3.063,0.218 4.605,0.925 6.446,2.194 C7.067,2.035 7.914,1.95 9.002,1.95 C10.138,1.95 10.99,2.035 11.559,2.195 C12.398,1.628 13.199,1.167 13.966,0.816 C14.745,0.468 15.306,0.261 15.658,0.207 L16.186,0.087 C16.546,0.952 16.765,1.9 16.847,2.93 C16.948,3.955 16.944,4.497 16.835,4.551 L16.833,4.552 Z M9.04,14.979 C11.291,14.979 12.979,14.71 14.135,14.17 C15.275,13.631 15.858,12.519 15.858,10.842 C15.858,9.869 15.494,9.055 14.762,8.405 C14.391,8.054 13.945,7.838 13.443,7.757 C12.943,7.676 12.178,7.676 11.15,7.757 C10.125,7.84 9.419,7.877 9.041,7.877 C8.528,7.877 7.974,7.853 7.282,7.798 C6.589,7.745 6.045,7.711 5.651,7.694 C5.259,7.682 4.839,7.73 4.374,7.838 C3.914,7.947 3.535,8.137 3.237,8.405 C2.542,9.03 2.184,9.841 2.184,10.842 C2.184,12.519 2.752,13.631 3.891,14.17 C5.024,14.71 6.708,14.979 8.96,14.979 L9.041,14.979 L9.04,14.979 Z M5.795,9.297 C6.152,9.297 6.451,9.474 6.708,9.825 C6.964,10.178 7.1,10.609 7.1,11.125 C7.1,11.638 6.964,12.073 6.708,12.422 C6.452,12.775 6.152,12.95 5.795,12.95 C5.423,12.95 5.099,12.775 4.84,12.422 C4.584,12.073 4.448,11.638 4.448,11.125 C4.448,10.609 4.584,10.178 4.84,9.825 C5.097,9.473 5.421,9.297 5.795,9.297 L5.795,9.297 Z" id="Shape"></path>
                </g>
            </g>
            <g id="icon-social-flickr-link" transform="translate(542.000000, 10.000000)" sketch:type="MSShapeGroup">
                <g id="icon-social-flickr">
                    <path d="M5,10.333 C2.059,10.333 -0.333,7.941 -0.333,5 C-0.333,2.059 2.059,-0.333 5,-0.333 C7.941,-0.333 10.333,2.059 10.333,5 C10.333,7.941 7.941,10.333 5,10.333 L5,10.333 Z M5,2.333 C3.529,2.333 2.333,3.529 2.333,5 C2.333,6.471 3.529,7.667 5,7.667 C6.471,7.667 7.667,6.471 7.667,5 C7.667,3.529 6.471,2.333 5,2.333 L5,2.333 Z" id="Shape"></path>
                    <path d="M17,-0.333 C14.059,-0.333 11.667,2.059 11.667,5 C11.667,7.941 14.059,10.333 17,10.333 C19.941,10.333 22.333,7.941 22.333,5 C22.333,2.059 19.941,-0.333 17,-0.333 L17,-0.333 Z" id="Shape"></path>
                </g>
            </g>
            <g id="icon-at-link" transform="translate(590.000000, 4.000000)" sketch:type="MSShapeGroup">
                <g id="icon-at">
                    <path d="M11,0.333 C5.119,0.333 0.333,5.118 0.333,11 C0.333,16.882 5.118,21.667 11,21.667 C13.155,21.667 15.229,21.028 16.999,19.822 C17.607,19.406 17.764,18.577 17.35,17.969 C16.935,17.36 16.107,17.206 15.497,17.618 C14.172,18.523 12.617,19.001 11.001,19.001 C6.589,19.001 3.001,15.413 3.001,11.001 C3.001,6.589 6.589,3.001 11.001,3.001 C15.413,3.001 19.001,6.589 19.001,11.001 L19.001,11.668 C19.001,12.404 18.404,13.001 17.668,13.001 C16.932,13.001 16.335,12.404 16.335,11.668 L16.335,7.668 C16.335,6.931 15.739,6.335 15.002,6.335 C14.414,6.335 13.929,6.722 13.751,7.252 C12.978,6.683 12.032,6.335 11.002,6.335 C8.429,6.335 6.335,8.428 6.335,11.002 C6.335,13.576 8.428,15.669 11.002,15.669 C12.395,15.669 13.635,15.042 14.49,14.07 C15.221,15.034 16.367,15.669 17.669,15.669 C19.874,15.669 21.669,13.874 21.669,11.669 L21.669,11.002 C21.669,5.121 16.884,0.335 11.002,0.335 L11,0.333 Z M11,13 C9.897,13 9,12.103 9,11 C9,9.897 9.897,9 11,9 C12.103,9 13,9.897 13,11 C13,12.103 12.103,13 11,13 L11,13 Z" id="Shape"></path>
                </g>
            </g>
            <g id="icon-phone-outline-link" transform="translate(634.000000, 0.000000)" sketch:type="MSShapeGroup">
                <g id="icon-phone-outline">
                    <path d="M25.003,3.896 L22.61,1.505 C21.855,0.749 20.85,0.333 19.782,0.333 C18.714,0.333 17.709,0.749 16.954,1.505 L14.839,3.62 C13.279,5.18 13.279,7.716 14.839,9.276 L16.678,11.115 L11.115,16.678 L9.276,14.839 C8.521,14.083 7.516,13.667 6.448,13.667 C5.38,13.667 4.375,14.083 3.62,14.839 L1.505,16.954 C-0.055,18.514 -0.055,21.05 1.505,22.61 L3.897,25.001 C4.517,25.621 6.292,27.061 9.385,27.061 C13.07,27.061 16.977,25.022 21,21.001 C29.327,12.673 27.433,6.332 25.003,3.897 L25.003,3.896 Z M16.724,5.505 L18.839,3.39 C19.099,3.13 19.44,2.999 19.782,2.999 C20.124,2.999 20.465,3.13 20.725,3.39 L22.169,4.833 L18.168,8.833 L16.725,7.39 C16.204,6.869 16.204,6.026 16.725,5.505 L16.724,5.505 Z M3.391,20.724 C2.87,20.203 2.87,19.36 3.391,18.839 L5.506,16.724 C5.766,16.464 6.107,16.333 6.449,16.333 C6.791,16.333 7.132,16.464 7.392,16.724 L8.835,18.167 L4.836,22.167 L3.392,20.724 L3.391,20.724 Z M19.115,19.115 C15.004,23.224 11.714,24.394 9.386,24.394 C7.587,24.394 6.363,23.697 5.783,23.115 C5.778,23.11 9.776,19.11 9.776,19.11 L10.172,19.506 C10.432,19.766 10.773,19.897 11.115,19.897 C11.457,19.897 11.798,19.766 12.058,19.506 L19.506,12.058 C20.027,11.537 20.027,10.694 19.506,10.173 L19.11,9.777 L23.111,5.777 C24.448,7.116 26.4,11.829 19.115,19.116 L19.115,19.115 Z" id="Shape"></path>
                </g>
            </g>
            <g id="icon-social-vimeo-circular-link" transform="translate(685.000000, 3.000000)" sketch:type="MSShapeGroup">
                <g id="icon-social-vimeo-circular">
                    <path d="M15.284,8.188 C14.601,8.188 13.967,8.505 13.377,9.141 C12.962,9.557 12.71,10.045 12.622,10.609 C12.898,10.434 13.138,10.348 13.343,10.348 C13.555,10.348 13.73,10.441 13.867,10.631 C14.132,11.002 14.118,11.47 13.823,12.032 C13.171,13.277 12.695,13.899 12.402,13.899 C12.194,13.899 11.927,13.203 11.599,11.81 C11.542,11.603 11.482,11.306 11.422,10.921 C11.362,10.537 11.305,10.204 11.245,9.921 C11.185,9.64 11.097,9.35 10.978,9.056 C10.859,8.762 10.711,8.544 10.534,8.412 C10.409,8.32 10.265,8.273 10.098,8.273 C10.025,8.273 9.949,8.282 9.867,8.301 C9.482,8.39 9.036,8.628 8.534,9.013 C8.029,9.397 7.615,9.768 7.289,10.124 L6.844,10.657 L7.245,11.189 C7.305,11.13 7.378,11.07 7.466,11.012 C7.554,10.952 7.718,10.877 7.955,10.789 C8.056,10.752 8.143,10.732 8.21,10.732 C8.302,10.732 8.365,10.765 8.401,10.833 C8.489,10.952 8.762,11.789 9.221,13.345 C9.682,14.901 9.97,15.797 10.088,16.034 C10.296,16.449 10.577,16.767 10.932,16.99 C11.105,17.097 11.293,17.151 11.501,17.151 C11.721,17.151 11.962,17.088 12.221,16.966 C13.022,16.434 13.94,15.545 14.977,14.299 C16.014,13.055 16.65,11.736 16.888,10.344 C17.096,9.129 16.741,8.432 15.823,8.255 C15.639,8.208 15.46,8.188 15.284,8.188 L15.284,8.188 Z" id="Shape"></path>
                    <path d="M12,24 C5.383,24 0,18.617 0,12 C0,5.383 5.383,0 12,0 C18.617,0 24,5.383 24,12 C24,18.617 18.617,24 12,24 L12,24 Z M12,2.667 C6.855,2.667 2.667,6.855 2.667,12 C2.667,17.145 6.855,21.333 12,21.333 C17.145,21.333 21.333,17.145 21.333,12 C21.333,6.855 17.145,2.667 12,2.667 L12,2.667 Z" id="Shape"></path>
                </g>
            </g>
            <g id="icon-social-twitter-circular-link" transform="translate(733.000000, 3.000000)" sketch:type="MSShapeGroup">
                <g id="icon-social-twitter-circular">
                    <path d="M16.372,9.711 C16.849,9.416 17.168,9.016 17.323,8.506 C16.858,8.754 16.394,8.922 15.93,9.017 C15.514,8.569 14.986,8.341 14.354,8.341 C13.735,8.341 13.214,8.558 12.787,8.98 C12.364,9.404 12.15,9.921 12.15,10.524 C12.15,10.707 12.173,10.871 12.219,11.009 C10.395,10.945 8.887,10.19 7.698,8.734 C7.497,9.09 7.395,9.453 7.395,9.827 C7.395,10.598 7.72,11.208 8.368,11.658 C7.999,11.627 7.673,11.533 7.395,11.379 C7.395,11.93 7.556,12.39 7.882,12.795 C8.206,13.195 8.625,13.451 9.134,13.559 C8.949,13.607 8.754,13.63 8.554,13.63 C8.367,13.63 8.238,13.614 8.159,13.581 C8.298,14.03 8.554,14.393 8.924,14.672 C9.293,14.952 9.72,15.099 10.2,15.112 C9.412,15.732 8.508,16.037 7.487,16.037 C7.236,16.037 7.06,16.034 6.954,16.014 C7.959,16.666 9.079,16.991 10.315,16.991 C11.583,16.991 12.704,16.67 13.678,16.027 C14.651,15.388 15.373,14.6 15.834,13.671 C16.298,12.744 16.529,11.779 16.529,10.772 L16.529,10.493 C16.977,10.156 17.341,9.776 17.62,9.354 C17.223,9.531 16.805,9.65 16.373,9.71 L16.372,9.711 Z" id="Shape"></path>
                    <path d="M12,24 C8.68,24 5.82,22.813 3.499,20.472 C1.178,18.137 0,15.287 0,12 C0,8.683 1.179,5.821 3.503,3.5 C5.823,1.179 8.682,0 12,0 C15.288,0 18.139,1.177 20.472,3.499 C22.813,5.822 24,8.683 24,12 C24,15.287 22.815,18.139 20.475,20.476 C18.14,22.813 15.29,24 12,24 L12,24 Z M12,2.667 C9.379,2.667 7.216,3.556 5.389,5.387 C3.556,7.216 2.666,9.379 2.666,12 C2.666,14.592 3.557,16.749 5.39,18.593 C7.219,20.437 9.381,21.333 11.999,21.333 C14.59,21.333 16.746,20.436 18.588,18.59 C20.435,16.745 21.332,14.587 21.332,11.999 C21.332,9.382 20.436,7.219 18.592,5.39 C16.748,3.557 14.592,2.666 11.999,2.666 L12,2.667 Z" id="Shape"></path>
                </g>
            </g>
            <g id="icon-social-linkedin-circular-link" transform="translate(0.000000, 51.000000)" sketch:type="MSShapeGroup">
                <g id="icon-social-linkedin-circular">
                    <path d="M9.377,16.4 L7.244,16.4 L7.244,9.468 L9.377,9.468 L9.377,16.4 L9.377,16.4 Z M8.311,8.579 C7.542,8.579 7.156,8.223 7.156,7.512 C7.156,7.215 7.265,6.963 7.489,6.756 C7.71,6.549 7.984,6.445 8.31,6.445 C9.079,6.445 9.465,6.802 9.465,7.513 C9.465,8.224 9.081,8.578 8.31,8.578 L8.311,8.579 Z M17.289,16.4 L15.112,16.4 L15.112,12.533 C15.112,11.526 14.755,11.022 14.044,11.022 C13.481,11.022 13.112,11.303 12.932,11.866 C12.875,11.955 12.844,12.134 12.844,12.399 L12.844,16.399 L10.667,16.399 L10.667,11.688 C10.667,10.621 10.651,9.881 10.623,9.467 L12.49,9.467 L12.623,10.399 C13.112,9.658 13.823,9.288 14.8,9.288 C15.543,9.288 16.141,9.547 16.6,10.065 C17.061,10.584 17.291,11.332 17.291,12.31 L17.291,16.398 L17.289,16.4 Z" id="Shape"></path>
                    <path d="M12,24 C5.383,24 0,18.617 0,12 C0,5.383 5.383,0 12,0 C18.617,0 24,5.383 24,12 C24,18.617 18.617,24 12,24 L12,24 Z M12,2.667 C6.855,2.667 2.667,6.855 2.667,12 C2.667,17.145 6.855,21.333 12,21.333 C17.145,21.333 21.333,17.145 21.333,12 C21.333,6.855 17.145,2.667 12,2.667 L12,2.667 Z" id="Shape"></path>
                </g>
            </g>
            <g id="icon-social-facebook-circular-link" transform="translate(48.000000, 51.000000)" sketch:type="MSShapeGroup">
                <g id="icon-social-facebook-circular">
                    <path d="M20.472,3.499 C18.139,1.178 15.288,-4.4408921e-16 12,-4.4408921e-16 C8.681,-4.4408921e-16 5.823,1.179 3.503,3.5 C1.179,5.821 0,8.683 0,12 C0,15.287 1.177,18.137 3.499,20.472 C5.82,22.813 8.68,24 12,24 C15.289,24 18.14,22.813 20.475,20.476 C22.815,18.139 24,15.287 24,12 C24,8.683 22.813,5.821 20.472,3.499 L20.472,3.499 Z M18.589,18.591 C17.073,20.11 15.341,20.975 13.333,21.238 L13.333,14.667 L16,14.667 L16,12 L13.333,12 L13.333,10.133 C13.333,9.692 13.692,9.333 14.134,9.333 L15.999,9.333 L15.999,6.666 L14.136,6.666 C13.147,6.666 12.321,7.03 11.66,7.762 C10.999,8.491 10.665,9.382 10.665,10.439 L10.665,11.999 L7.998,11.999 L7.998,14.666 L10.665,14.666 L10.665,21.239 C8.636,20.979 6.897,20.112 5.389,18.594 C3.556,16.749 2.665,14.591 2.665,11.999 C2.665,9.378 3.554,7.215 5.388,5.386 C7.215,3.555 9.377,2.666 11.999,2.666 C14.592,2.666 16.748,3.557 18.592,5.39 C20.436,7.219 21.332,9.382 21.332,11.999 C21.332,14.587 20.435,16.744 18.588,18.59 L18.589,18.591 Z" id="Shape"></path>
                </g>
            </g>
            <g id="icon-social-dribbble-circular-link" transform="translate(96.000000, 51.000000)" sketch:type="MSShapeGroup">
                <g id="icon-social-dribbble-circular">
                    <path d="M12,24 C5.384,24 0,18.617 0,12 C0,5.383 5.384,0 12,0 C18.616,0 24,5.383 24,12 C24,18.617 18.616,24 12,24 L12,24 Z M12,2.667 C6.853,2.667 2.667,6.855 2.667,12 C2.667,17.145 6.854,21.333 12,21.333 C17.146,21.333 21.333,17.145 21.333,12 C21.333,6.855 17.146,2.667 12,2.667 L12,2.667 Z" id="Shape"></path>
                    <path d="M12,4.667 C7.956,4.667 4.667,7.958 4.667,12 C4.667,16.042 7.956,19.333 12,19.333 C16.044,19.333 19.333,16.042 19.333,12 C19.333,7.958 16.044,4.667 12,4.667 L12,4.667 Z M17.987,11.869 C16.59,11.621 15.187,11.629 13.85,11.925 C13.681,11.49 13.494,11.062 13.294,10.638 C14.461,9.939 15.497,9.01 16.339,7.878 C17.334,8.925 17.954,10.323 17.987,11.869 L17.987,11.869 Z M15.32,7.008 C14.592,8.005 13.7,8.831 12.687,9.451 C12.048,8.31 11.292,7.234 10.431,6.235 C10.935,6.098 11.454,6 12,6 C13.228,6 14.368,6.373 15.32,7.008 L15.32,7.008 Z M9.132,6.763 C10.048,7.774 10.836,8.883 11.5,10.06 C9.849,10.768 8.004,10.981 6.169,10.643 C6.56,8.964 7.66,7.574 9.132,6.763 L9.132,6.763 Z M6,12 C6.624,12.085 7.248,12.161 7.865,12.161 C9.34,12.161 10.781,11.836 12.112,11.25 C12.276,11.598 12.429,11.949 12.571,12.307 C10.612,13.008 8.879,14.292 7.6,16.047 C6.616,14.978 6,13.564 6,11.999 L6,12 Z M8.597,16.932 C9.72,15.347 11.269,14.189 13.021,13.563 C13.44,14.898 13.712,16.282 13.816,17.69 C13.239,17.874 12.637,18.001 12,18.001 C10.736,18.001 9.565,17.604 8.597,16.933 L8.597,16.932 Z M15.093,17.115 C14.961,15.782 14.698,14.471 14.302,13.199 C15.462,12.964 16.673,12.97 17.879,13.2 C17.538,14.863 16.499,16.261 15.092,17.115 L15.093,17.115 Z" id="Shape"></path>
                </g>
            </g>
            <g id="icon-social-tumbler-circular-link" transform="translate(144.000000, 51.000000)" sketch:type="MSShapeGroup">
                <g id="icon-social-tumbler-circular">
                    <path d="M15.169,16.787 L15.169,15.142 C14.637,15.499 14.118,15.675 13.614,15.675 C13.377,15.675 13.111,15.599 12.814,15.454 C12.635,15.334 12.533,15.202 12.502,15.053 C12.414,14.876 12.369,14.49 12.369,13.897 L12.369,11.276 L14.814,11.276 L14.814,9.632 L12.369,9.632 L12.369,7.009 L10.948,7.009 C10.829,7.632 10.711,8.076 10.592,8.342 C10.445,8.667 10.208,8.965 9.881,9.23 C9.554,9.498 9.214,9.69 8.858,9.809 L8.858,11.277 L9.969,11.277 L9.969,14.877 C9.969,15.292 10.028,15.645 10.148,15.942 C10.236,16.179 10.413,16.415 10.681,16.653 C10.886,16.861 11.184,17.038 11.569,17.186 C12.042,17.306 12.457,17.363 12.814,17.363 C13.229,17.363 13.614,17.319 13.969,17.23 C14.385,17.141 14.785,16.993 15.169,16.787 L15.169,16.787 Z" id="Shape"></path>
                    <path d="M12,24 C5.383,24 0,18.617 0,12 C0,5.383 5.383,0 12,0 C18.617,0 24,5.383 24,12 C24,18.617 18.617,24 12,24 L12,24 Z M12,2.667 C6.855,2.667 2.667,6.855 2.667,12 C2.667,17.145 6.855,21.333 12,21.333 C17.145,21.333 21.333,17.145 21.333,12 C21.333,6.855 17.145,2.667 12,2.667 L12,2.667 Z" id="Shape"></path>
                </g>
            </g>
            <g id="icon-social-skype-outline-link" transform="translate(192.000000, 51.000000)" sketch:type="MSShapeGroup">
                <g id="icon-social-skype-outline">
                    <path d="M7.82,2.667 C8.821,2.667 9.74,2.936 10.579,3.479 C11.011,3.372 11.527,3.318 12.122,3.318 C14.583,3.318 16.679,4.211 18.411,5.995 C20.143,7.78 21.008,9.944 21.008,12.488 C21.008,13.109 20.94,13.759 20.805,14.436 C21.157,15.221 21.333,16.019 21.333,16.828 C21.333,18.291 20.826,19.543 19.81,20.581 C18.795,21.622 17.586,22.145 16.177,22.145 C15.338,22.145 14.528,21.929 13.744,21.494 C13.041,21.602 12.5,21.657 12.121,21.657 C9.658,21.657 7.554,20.764 5.81,18.978 C4.066,17.192 3.193,15.029 3.193,12.487 C3.193,11.891 3.261,11.284 3.396,10.66 C2.911,9.848 2.667,8.943 2.667,7.941 C2.667,6.48 3.168,5.236 4.168,4.209 C5.168,3.18 6.387,2.665 7.82,2.665 L7.82,2.667 Z M12,16.707 C11.459,16.707 11.028,16.626 10.7,16.463 C10.349,16.274 10.107,16.084 9.971,15.896 C9.647,15.3 9.47,14.988 9.443,14.963 C9.335,14.639 9.174,14.367 8.958,14.151 C8.687,13.964 8.417,13.867 8.145,13.867 C7.766,13.867 7.456,13.988 7.212,14.232 C6.968,14.475 6.847,14.76 6.847,15.084 C6.847,15.599 7.039,16.152 7.418,16.748 C7.769,17.288 8.257,17.736 8.879,18.085 C9.743,18.546 10.812,18.777 12.084,18.777 C13.137,18.777 14.071,18.614 14.884,18.29 C15.696,17.911 16.291,17.438 16.669,16.87 C17.074,16.247 17.277,15.57 17.277,14.841 C17.277,14.248 17.17,13.705 16.954,13.218 C16.737,12.813 16.399,12.447 15.938,12.125 C15.451,11.825 14.938,11.582 14.397,11.394 C13.478,11.122 12.826,10.946 12.449,10.866 C12.258,10.838 12.022,10.793 11.738,10.723 C11.454,10.656 11.271,10.61 11.191,10.582 C10.867,10.475 10.636,10.379 10.5,10.299 C10.283,10.191 10.108,10.042 9.972,9.851 C9.835,9.718 9.769,9.54 9.769,9.323 C9.769,8.999 9.958,8.716 10.337,8.471 C10.69,8.2 11.202,8.064 11.878,8.064 C12.555,8.064 13.057,8.187 13.381,8.428 C13.732,8.728 13.989,9.065 14.15,9.444 C14.367,9.796 14.543,10.039 14.678,10.173 C14.894,10.337 15.151,10.418 15.449,10.418 C15.801,10.418 16.113,10.282 16.381,10.01 C16.626,9.769 16.748,9.471 16.748,9.118 C16.748,8.849 16.652,8.495 16.463,8.063 C16.247,7.739 15.962,7.415 15.611,7.091 C15.232,6.792 14.732,6.535 14.108,6.319 C13.461,6.128 12.769,6.035 12.039,6.035 C11.066,6.035 10.199,6.182 9.442,6.482 C8.687,6.749 8.105,7.155 7.699,7.697 C7.292,8.238 7.09,8.86 7.09,9.564 C7.09,10.267 7.281,10.876 7.658,11.391 C8.119,11.931 8.631,12.308 9.199,12.526 C9.85,12.825 10.634,13.069 11.554,13.257 C11.715,13.285 11.914,13.332 12.142,13.398 C12.371,13.467 12.574,13.521 12.751,13.562 C12.926,13.599 13.068,13.635 13.176,13.662 C13.555,13.799 13.865,13.986 14.108,14.231 C14.352,14.419 14.473,14.703 14.473,15.083 C14.473,15.544 14.257,15.922 13.825,16.22 C13.34,16.544 12.73,16.705 12,16.705 L12,16.707 Z M7.82,1.77635684e-15 C5.675,1.77635684e-15 3.749,0.813 2.255,2.353 C0.782,3.865 0,5.8 0,7.942 C0,9.051 0.208,10.101 0.621,11.073 C0.558,11.549 0.528,12.024 0.528,12.489 C0.528,15.74 1.665,18.552 3.904,20.845 C6.161,23.154 8.928,24.325 12.123,24.325 C12.462,24.325 12.852,24.298 13.318,24.245 C14.238,24.622 15.197,24.813 16.179,24.813 C18.296,24.813 20.212,23.994 21.722,22.444 C23.211,20.92 24.001,18.977 24.001,16.829 C24.001,15.926 23.853,15.03 23.558,14.157 C23.637,13.588 23.677,13.029 23.677,12.489 C23.677,9.24 22.549,6.43 20.326,4.138 C18.079,1.825 15.319,0.651 12.123,0.651 C11.751,0.651 11.395,0.668 11.055,0.702 C10.047,0.235 8.964,-0.001 7.82,-0.001 L7.82,1.77635684e-15 Z" id="Shape"></path>
                </g>
            </g>
            <g id="icon-social-flickr-circular-link" transform="translate(240.000000, 51.000000)" sketch:type="MSShapeGroup">
                <g id="icon-social-flickr-circular">
                    <path d="M12,24 C8.681,24 5.82,22.813 3.499,20.472 C1.178,18.137 0,15.287 0,12 C0,8.683 1.179,5.821 3.503,3.5 C5.823,1.179 8.683,0 12,0 C15.288,0 18.139,1.177 20.472,3.499 C22.812,5.822 24,8.683 24,12 C24,15.287 22.813,18.139 20.475,20.476 C18.14,22.813 15.29,24 12,24 L12,24 Z M12,2.667 C9.379,2.667 7.216,3.556 5.389,5.387 C3.557,7.216 2.666,9.379 2.666,12 C2.666,14.592 3.557,16.749 5.39,18.593 C7.219,20.437 9.381,21.333 11.999,21.333 C14.59,21.333 16.746,20.436 18.587,18.59 C20.435,16.745 21.332,14.587 21.332,11.999 C21.332,9.382 20.436,7.219 18.592,5.39 C16.748,3.557 14.592,2.666 11.999,2.666 L12,2.667 Z" id="Shape"></path>
                    <path d="M8,15.333 C6.161,15.333 4.667,13.838 4.667,12 C4.667,10.162 6.162,8.667 8,8.667 C9.838,8.667 11.333,10.162 11.333,12 C11.333,13.838 9.838,15.333 8,15.333 L8,15.333 Z M8,10 C6.897,10 6,10.897 6,12 C6,13.103 6.897,14 8,14 C9.103,14 10,13.103 10,12 C10,10.897 9.103,10 8,10 L8,10 Z" id="Shape"></path>
                    <path d="M16,15.333 C14.161,15.333 12.667,13.838 12.667,12 C12.667,10.162 14.162,8.667 16,8.667 C17.838,8.667 19.333,10.162 19.333,12 C19.333,13.838 17.838,15.333 16,15.333 L16,15.333 Z" id="Shape"></path>
                </g>
            </g>
            <g id="icon-social-at-circular-link" transform="translate(288.000000, 51.000000)" sketch:type="MSShapeGroup">
                <g id="icon-social-at-circular">
                    <path d="M11.792,6 C8.484,6 5.875,8.692 5.875,12 C5.875,15.308 8.608,18 11.916,18 C13.127,18 14.315,17.64 15.312,16.963 C15.616,16.756 15.705,16.342 15.497,16.038 C15.29,15.733 14.881,15.655 14.576,15.862 C13.803,16.39 12.899,16.667 11.956,16.667 C9.383,16.667 7.291,14.574 7.291,12 C7.291,9.426 9.219,7.333 11.792,7.333 C14.365,7.333 16.292,9.426 16.292,12 L16.292,12.333 C16.292,12.885 15.844,13.333 15.292,13.333 C14.74,13.333 14.292,12.885 14.292,12.333 L14.292,10 C14.292,9.632 14.16,9.333 13.792,9.333 C13.519,9.333 13.368,9.498 13.264,9.734 C12.86,9.483 12.427,9.333 11.917,9.333 C10.445,9.333 9.272,10.528 9.272,12 C9.272,13.472 10.477,14.667 11.949,14.667 C12.698,14.667 13.38,14.354 13.866,13.855 C14.291,14.347 14.751,14.667 15.455,14.667 C16.742,14.667 17.624,13.62 17.624,12.334 L17.624,12.001 C17.624,8.693 15.099,6.001 11.791,6.001 L11.792,6 Z M11.959,13.333 C11.224,13.333 10.626,12.734 10.626,12 C10.626,11.266 11.225,10.667 11.959,10.667 C12.693,10.667 13.292,11.266 13.292,12 C13.292,12.734 12.693,13.333 11.959,13.333 L11.959,13.333 Z" id="Shape"></path>
                    <path d="M12,24 C5.383,24 0,18.617 0,12 C0,5.383 5.383,0 12,0 C18.617,0 24,5.383 24,12 C24,18.617 18.617,24 12,24 L12,24 Z M12,2.667 C6.855,2.667 2.667,6.855 2.667,12 C2.667,17.145 6.855,21.333 12,21.333 C17.145,21.333 21.333,17.145 21.333,12 C21.333,6.855 17.145,2.667 12,2.667 L12,2.667 Z" id="Shape"></path>
                </g>
            </g>
            <g id="icon-geekroyale-pirateskull-link" transform="translate(333.000000, 49.000000)" sketch:type="MSShapeGroup">
                <g id="icon-geekroyale-pirateskull">
                    <path d="M42.968,22.738 C42.871,21.587 42.045,20.662 40.766,20.036 C39.435,19.372 37.555,18.924 35.092,18.646 C34.443,18.291 33.873,17.916 33.379,17.521 C33.323,17.477 33.26,17.444 33.194,17.426 L33.168,17.405 C32.881,17.224 32.579,17.034 32.269,16.841 C32.534,16.328 32.758,15.783 32.931,15.202 C33.409,13.595 33.371,12.046 32.953,10.62 C34.206,10.182 35.298,9.883 36.219,9.729 C36.292,9.777 36.388,9.844 36.499,9.928 L36.547,9.96 C37.479,10.51 38.197,10.897 38.72,11.131 C39.403,11.465 39.919,11.661 40.41,11.669 C41.146,11.671 41.807,11.48 42.305,11.053 L42.39,10.96 C42.727,10.493 42.899,9.935 42.897,9.346 C42.879,8.315 42.248,7.209 41.115,5.827 C41.128,5.71 41.148,5.541 41.174,5.334 C41.337,4.346 41.423,3.698 41.425,3.296 C41.424,2.523 41.279,1.867 40.918,1.357 L40.862,1.291 C40.487,0.919 39.976,0.698 39.368,0.575 C39.299,0.561 39.231,0.561 39.163,0.575 C38.47,0.72 37.682,1.164 36.669,1.89 L36.604,1.946 C36.604,1.946 36.601,1.949 36.583,1.961 C36.565,1.973 36.535,1.991 36.496,2.01 L36.39,2.081 C34.901,3.358 33.69,4.509 32.754,5.542 C32.301,5.7 31.888,5.883 31.516,6.093 C31.402,6.138 31.313,6.171 31.253,6.191 C31.226,6.2 31.205,6.206 31.195,6.209 C31.144,6.215 31.093,6.229 31.047,6.249 C30.837,6.34 30.631,6.429 30.427,6.518 C29.49,5.589 28.379,4.806 27.176,4.214 C26.518,3.906 25.837,3.658 25.157,3.407 C25.072,3.303 24.979,3.205 24.864,3.118 C24.124,2.555 23.336,2.238 22.499,2.161 C21.735,1.621 21.049,0.938 20.386,0.316 C20.031,-0.017 19.6,0.58 19.548,0.908 C19.45,1.532 19.24,1.975 18.936,2.324 C18.846,2.334 18.757,2.344 18.664,2.355 L18.413,2.388 C16.605,2.628 15.204,2.913 14.207,3.244 C13.017,3.639 11.95,4.512 11.597,4.823 C11.672,4.78 11.339,5.249 11.163,5.656 C11.066,5.62 10.966,5.581 10.869,5.546 C9.216,3.739 8.017,2.511 7.232,1.837 C6.199,0.986 5.314,0.496 4.438,0.485 C3.662,0.481 2.972,0.698 2.56,1.25 C2.092,1.768 1.96,2.504 1.952,3.461 C1.952,4.169 2.075,4.971 2.312,5.877 C1.375,7.078 0.808,8.014 0.675,8.861 C0.604,8.952 0.564,9.067 0.564,9.183 C0.564,9.568 0.627,9.922 0.783,10.235 C0.887,10.447 1.038,10.634 1.222,10.779 C1.241,10.809 1.264,10.836 1.29,10.862 C1.753,11.303 2.396,11.416 3.214,11.423 C3.958,11.422 4.594,11.29 5.096,10.956 C5.594,10.75 6.184,10.35 6.954,9.739 C7.659,9.866 8.415,10.048 9.218,10.28 C8.353,12.664 8.554,15.32 10.027,17.597 C9.646,17.865 9.268,18.135 8.896,18.409 C5.784,18.844 3.633,19.298 2.36,19.815 C2.261,19.856 2.178,19.925 2.121,20.011 C1.655,20.257 1.273,20.598 1.009,21.024 C0.736,21.464 0.594,21.98 0.567,22.544 C0.511,22.629 0.48,22.729 0.48,22.832 C0.462,23.74 0.972,24.533 1.801,24.951 C2.561,25.349 3.565,25.531 4.842,25.56 C5.401,26.339 5.949,26.945 6.51,27.377 C7.003,27.758 7.52,28.006 8.05,28.078 C8.14,28.145 8.25,28.181 8.363,28.181 C8.376,28.181 8.389,28.181 8.403,28.18 C9.306,28.117 10.062,27.549 10.57,26.679 C11.056,25.86 11.392,24.758 11.617,23.355 C12.437,22.612 13.284,21.893 14.153,21.195 C14.725,21.486 15.324,21.737 15.943,21.946 C16.095,22.084 16.237,22.211 16.366,22.325 C16.37,22.33 16.372,22.336 16.375,22.341 C16.754,22.885 17.231,23.277 17.806,23.517 C18.382,23.757 19.209,24.004 20.289,24.258 L20.462,24.297 C21.71,24.576 22.7,24.732 23.434,24.765 C24.167,24.798 24.884,24.676 25.583,24.398 C25.907,24.262 26.099,24.059 26.159,23.79 C26.19,23.649 26.19,23.423 26.157,23.108 C26.113,22.766 26.107,22.52 26.141,22.368 C26.152,22.317 26.168,22.268 26.186,22.222 C26.33,22.153 26.461,22.087 26.579,22.024 L26.841,21.878 C26.862,21.865 26.887,21.852 26.907,21.84 C27.038,21.75 27.175,21.605 27.317,21.409 C27.762,21.202 28.191,20.969 28.602,20.714 C29.511,21.385 30.452,22.104 31.425,22.874 C31.535,23.15 31.617,23.342 31.683,23.476 C31.763,23.635 31.82,23.758 31.854,23.837 C31.862,23.855 31.868,23.87 31.873,23.883 L31.873,23.896 C31.873,23.958 31.884,24.023 31.907,24.081 C32.383,25.338 32.873,26.299 33.418,26.982 C33.876,27.558 34.411,27.962 35.018,28.07 C35.131,28.159 35.276,28.196 35.419,28.174 C35.918,28.093 36.4,27.828 36.943,27.42 C37.426,27.054 37.953,26.566 38.535,25.952 C39.868,25.726 40.908,25.395 41.671,24.909 C42.392,24.459 42.874,23.8 42.962,23.034 C42.971,22.996 42.975,22.956 42.975,22.915 L42.975,22.832 C42.975,22.8 42.972,22.767 42.966,22.736 L42.968,22.738 Z" id="Shape"></path>
                    <path d="M11.514,4.894 C11.534,4.875 11.562,4.851 11.596,4.821 C11.583,4.828 11.56,4.847 11.521,4.887 C11.518,4.89 11.517,4.89 11.514,4.893 L11.514,4.894 Z" id="Shape"></path>
                    <path d="M11.514,4.894 C11.459,4.944 11.456,4.95 11.514,4.894 L11.514,4.894 L11.514,4.894 Z" id="Shape"></path>
                    <path d="M40.297,20.973 C39.14,20.391 37.319,19.942 34.875,19.676 C34.809,19.668 34.742,19.648 34.684,19.616 C33.99,19.243 33.368,18.843 32.817,18.413 C32.717,18.377 32.632,18.322 32.567,18.265 C32.066,17.949 31.529,17.614 30.96,17.26 C31.751,16.117 32.199,14.744 32.114,13.133 C32.057,12.032 31.775,11.021 31.325,10.104 C33.249,9.353 34.885,8.871 36.242,8.663 C36.348,8.646 36.459,8.664 36.555,8.712 C36.717,8.794 36.882,8.908 37.103,9.071 C38.007,9.604 38.698,9.973 39.151,10.174 L39.173,10.184 C39.79,10.499 40.251,10.627 40.41,10.619 C40.946,10.617 41.311,10.497 41.573,10.295 C41.757,10.015 41.846,9.716 41.848,9.344 C41.867,8.783 41.349,7.704 40.173,6.331 C40.094,6.236 40.049,6.116 40.049,5.993 C40.05,5.902 40.058,5.844 40.073,5.71 C40.087,5.583 40.108,5.411 40.135,5.192 L40.138,5.171 C40.3,4.205 40.379,3.546 40.377,3.295 C40.378,2.681 40.259,2.258 40.09,2.001 C39.928,1.853 39.663,1.716 39.268,1.625 C38.858,1.734 38.172,2.095 37.311,2.718 C37.222,2.799 37.129,2.859 37.028,2.913 C35.534,4.196 34.337,5.342 33.443,6.342 C33.382,6.41 33.305,6.46 33.219,6.49 C32.756,6.645 32.351,6.822 32.005,7.02 L31.94,7.052 C31.798,7.108 31.682,7.152 31.584,7.185 C31.513,7.205 31.469,7.224 31.398,7.237 C30.847,7.475 30.316,7.706 29.805,7.93 C28.83,6.893 27.619,6.045 26.311,5.402 C25.018,4.796 23.554,4.493 22.317,3.778 C21.435,3.267 20.666,2.58 19.92,1.881 C19.584,2.774 19.005,3.488 18.091,4.007 C16.979,4.638 15.777,5.028 14.632,5.584 C13.766,6.004 12.939,6.54 12.205,7.171 C11.594,6.932 10.988,6.7 10.394,6.486 C10.313,6.457 10.242,6.41 10.185,6.347 C8.502,4.502 7.278,3.252 6.559,2.636 C5.622,1.848 4.872,1.52 4.441,1.532 C3.813,1.536 3.531,1.693 3.396,1.884 L3.34,1.95 C3.183,2.084 2.994,2.587 3.002,3.459 C3.002,4.1 3.127,4.904 3.392,5.852 C3.437,6.016 3.402,6.19 3.295,6.322 C2.167,7.695 1.67,8.745 1.694,9.181 C1.694,9.27 1.671,9.358 1.628,9.435 C1.646,9.576 1.68,9.685 1.72,9.765 C1.784,9.888 1.853,9.957 1.976,10.022 C2.069,10.069 2.143,10.139 2.193,10.224 C2.382,10.305 2.722,10.38 3.214,10.375 C3.858,10.376 4.292,10.247 4.544,10.065 L4.664,10.001 C4.985,9.886 5.631,9.47 6.481,8.776 C6.597,8.682 6.75,8.641 6.897,8.666 C7.925,8.838 9.041,9.116 10.242,9.496 C9.318,11.092 8.991,12.967 9.696,14.958 C10.09,16.073 10.704,17.042 11.469,17.873 C10.768,18.349 10.083,18.835 9.413,19.331 C9.341,19.383 9.261,19.417 9.173,19.429 C6.227,19.833 4.137,20.271 2.976,20.7 C2.924,20.769 2.854,20.825 2.772,20.861 C2.359,21.046 2.087,21.281 1.902,21.577 C1.718,21.874 1.613,22.252 1.613,22.751 C1.613,22.844 1.589,22.933 1.544,23.012 C1.595,23.466 1.797,23.743 2.295,24.026 C2.86,24.33 3.833,24.52 5.177,24.517 C5.315,24.517 5.45,24.573 5.547,24.67 C5.621,24.744 5.671,24.84 5.691,24.943 C6.211,25.67 6.705,26.205 7.151,26.547 C7.624,26.91 8.024,27.052 8.365,27.051 C8.436,27.051 8.506,27.066 8.57,27.093 C8.975,26.99 9.323,26.713 9.673,26.142 C10.08,25.463 10.415,24.381 10.626,22.922 C10.657,22.707 10.816,22.54 11.016,22.49 C12.006,21.596 13.035,20.739 14.096,19.91 C14.58,20.179 15.086,20.418 15.607,20.624 C16.223,20.903 16.892,21.131 17.616,21.299 L17.616,21.795 C17.616,21.8 17.618,21.806 17.618,21.811 L17.618,22.602 C17.618,22.97 18.3,23.268 19.141,23.268 C19.982,23.268 20.664,22.97 20.664,22.602 L20.664,21.681 C20.783,21.684 20.902,21.688 21.023,21.688 C21.176,21.688 21.328,21.684 21.48,21.68 L21.48,21.9 C21.48,21.904 21.481,21.908 21.482,21.911 L21.482,22.707 C21.482,23.044 21.923,23.318 22.467,23.318 C23.011,23.318 23.452,23.045 23.452,22.707 L23.452,21.503 C23.611,21.479 23.77,21.453 23.927,21.424 L23.927,22.218 C23.927,22.555 24.368,22.828 24.912,22.828 C25.456,22.828 25.897,22.555 25.897,22.218 L25.897,20.915 C26.437,20.734 26.9,20.505 27.302,20.235 C27.777,20.005 28.234,19.746 28.665,19.46 C29.806,20.288 30.997,21.194 32.237,22.178 C32.356,22.273 32.428,22.416 32.435,22.568 C32.523,22.786 32.59,22.939 32.626,23.009 C32.753,23.266 32.833,23.434 32.884,23.584 C32.899,23.639 32.92,23.677 32.925,23.799 C33.365,24.951 33.816,25.8 34.242,26.329 C34.685,26.879 35.05,27.053 35.346,27.052 C35.398,27.052 35.449,27.06 35.498,27.075 C35.71,26.993 35.991,26.835 36.317,26.586 C36.784,26.233 37.345,25.706 37.986,25.012 C38.132,24.854 38.361,24.801 38.562,24.879 C38.565,24.88 38.569,24.882 38.572,24.883 C39.721,24.674 40.574,24.375 41.113,24.027 C41.676,23.655 41.891,23.304 41.931,22.864 C41.882,22.158 41.435,21.552 40.303,20.972 L40.297,20.973 Z M27.945,17.615 C26.191,17.611 25.165,14.876 23.34,15.234 C21.138,15.665 19.327,17.303 17.073,17.626 C15.215,17.893 12.623,17.586 12.569,15.218 C12.574,15.142 12.58,15.066 12.585,14.99 C12.878,13.378 14.163,11.764 15.717,11.231 C18.311,10.342 20.409,11.502 22.655,12.676 C23.441,13.087 24.192,13.42 25.071,13.09 C26.096,12.705 27.008,12.095 28,11.64 C28.743,11.299 29.803,10.891 30.489,11.602 C31.027,12.16 31.132,12.898 30.968,13.638 C30.685,14.915 29.558,17.62 27.944,17.616 L27.945,17.615 Z" id="Shape"></path>
                </g>
            </g>
        </g>
        <g id="geek-Royale-skull" sketch:type="MSLayerGroup" transform="translate(334.000000, 49.000000)">
            <g id="Group">
                <g>
                    <g id="Shape-+-Shape"></g>
                    <g sketch:type="MSShapeGroup">
                        <path id="Shape" fill="#000000" d="M11,5.28125 C11.0466704,5.20896418 11.1104243,5.11341396 11.1879195,5 C11.1579613,5.02783419 11.1057202,5.10219719 11.0149791,5.25673929 C11.0080466,5.26899465 11.0066849,5.27024095 11,5.28125 L11,5.28125 Z"></path>
                        <path id="Shape" fill="#000000" d="M11.0739379,5 C10.978193,5.08775 10.9725554,5.09721875 11.0739379,5 L11.0739379,5 L11.0739379,5 Z"></path>
                        <g id="Shape-+-Shape">
                            <path d="M41.9911277,21.744102 C41.894861,20.6327488 41.078878,19.7402097 39.8150847,19.1356684 C38.4993859,18.4949522 36.6420538,18.0624623 34.20744,17.7934602 C33.5665117,17.4511221 33.0025118,17.0881793 32.514112,16.7069675 C32.4590721,16.6644607 32.3967537,16.6330607 32.3307696,16.6150511 L32.3051091,16.5952249 C32.0213028,16.4204228 31.723099,16.2374204 31.4167135,16.0503178 C31.6790564,15.5550797 31.9001724,15.0284416 32.0706049,14.4681199 C32.5428008,12.9165436 32.5052398,11.4207607 32.0924403,10.044765 C33.3304137,9.62140965 34.4097489,9.33325606 35.3198204,9.18414488 C35.3919673,9.23059615 35.4872247,9.29552413 35.5965608,9.37638568 L35.6441097,9.40700719 C36.5656036,9.93784922 37.2748006,10.3116392 37.7921015,10.5371485 C38.4666595,10.8600757 38.9770008,11.0488391 39.4621597,11.0565204 C40.1898981,11.0581813 40.8424082,10.8741408 41.3346331,10.4614251 L41.4184681,10.3712733 C41.7512046,9.91999532 41.9215309,9.38142006 41.919087,8.81346891 C41.9012894,7.81790654 41.2774681,6.75009816 40.1581811,5.41634976 C40.1710379,5.30367299 40.1906419,5.14034097 40.2169931,4.93995174 C40.3776502,3.98570245 40.4629196,3.36050465 40.4653103,2.97254569 C40.4638759,2.22652267 40.3212821,1.59333213 39.9645319,1.10079294 L39.9086951,1.03695487 C39.538185,0.677385689 39.0335283,0.464488346 38.4323923,0.346102475 C38.364655,0.332971557 38.2969707,0.332971557 38.2296053,0.346102475 C37.5450594,0.486494312 36.7662125,0.915143546 35.7651338,1.6155976 L35.7008497,1.6693669 C35.7008497,1.6693669 35.6982465,1.67248095 35.6800238,1.68379534 C35.6619605,1.69578444 35.6330593,1.71239272 35.5942232,1.73123273 L35.4890841,1.79963807 C34.0172441,3.03233549 32.8207631,4.14332538 31.8958691,5.14117138 C31.4483243,5.29412323 31.0404125,5.47068997 30.6719213,5.67357045 C30.5595569,5.71706337 30.4709936,5.7489305 30.4118098,5.76797812 C30.3851398,5.77654176 30.3646327,5.78251036 30.3544322,5.7850535 C30.3040675,5.7909702 30.2535434,5.80389352 30.2083851,5.82320064 C30.0006041,5.9110169 29.7976576,5.99670522 29.5952424,6.08265305 C28.6695515,5.18575423 27.5711967,4.42971434 26.381941,3.85807823 C25.7318748,3.56037487 25.0589638,3.32111189 24.3870091,3.07883866 C24.3033336,2.9788776 24.2107326,2.88426232 24.0977307,2.80007912 C23.3665922,2.25631377 22.5877452,1.95061768 21.7608181,1.87603614 C21.0055597,1.35458816 20.3276016,0.694824379 19.6721164,0.0944870873 C19.321104,-0.226986863 18.8953946,0.34942413 18.8442861,0.665656094 C18.7472224,1.26848463 18.5400257,1.69547303 18.2395375,2.03236154 C18.1501241,2.04232651 18.0630484,2.05156486 17.9711381,2.06236024 L17.723299,2.09459068 C15.9368919,2.32596473 14.5517026,2.60150641 13.5668278,2.92080053 C12.3912259,3.30247948 11.3365418,4.14529761 10.9869638,4.44559601 C11.0611827,4.40433482 10.7320057,4.85675465 10.5581199,5.24974799 C10.4618531,5.21523392 10.3635675,5.17776149 10.2676727,5.14387023 C8.63416609,3.39880748 7.44947937,2.21396266 6.67323569,1.56291823 C5.65228744,0.74111995 4.77813006,0.268510684 3.91183553,0.257300097 C3.14457037,0.253148028 2.46299962,0.463190824 2.05545974,0.996316497 C1.59250803,1.49617372 1.46255854,2.20737125 1.45448318,3.13068762 C1.4549082,3.8142739 1.57603855,4.58894619 1.80995826,5.46347575 C0.883629827,6.62340816 0.323242562,7.52689839 0.191646121,8.344337 C0.121199258,8.43262037 0.0817256385,8.54306541 0.0817256385,8.65553458 C0.0817256385,9.02704096 0.143884636,9.36948286 0.297953944,9.67154589 C0.400649108,9.87619099 0.550308847,10.056287 0.731951249,10.1972497 C0.751236476,10.2257433 0.773496835,10.2527318 0.798785452,10.2772809 C1.25626504,10.703387 1.89134936,10.811756 2.70063825,10.8190221 C3.43597387,10.8181398 4.06441727,10.6905674 4.56105172,10.3682112 C5.05322347,10.1696904 5.63656175,9.78328845 6.39750475,9.19307182 C7.09395115,9.31560976 7.84113417,9.49093088 8.63501613,9.71545402 C7.77993147,12.016894 7.9785215,14.5815233 9.43495461,16.7803034 C9.05801608,17.0390292 8.68437144,17.2999349 8.31673019,17.5647331 C5.24081613,17.9849225 3.11487218,18.4231215 1.85718848,18.9225635 C1.75890288,18.9619043 1.67745866,19.0289602 1.62135618,19.1121573 C1.16100771,19.3497595 0.783272267,19.6784476 0.522735753,20.0904367 C0.253008208,20.5149858 0.113017646,21.0131303 0.0861352084,21.5580374 C0.0305640025,21.6399889 0.000440796317,21.7364726 0.000440796317,21.8365375 C-0.0170381011,22.7127278 0.486449774,23.4791479 1.30604537,23.8824176 C2.05747858,24.2663802 3.04915365,24.4425317 4.3111938,24.4700392 C4.86334633,25.2223941 5.40551091,25.8071612 5.95936351,26.223977 C6.44696631,26.5915389 6.95720136,26.8316842 7.48151516,26.9005566 C7.57082223,26.9650175 7.67888325,26.9999987 7.79045068,26.9999987 C7.80325437,26.9999987 7.81653621,26.9996873 7.82976492,26.9986493 C8.7219856,26.938081 9.46927488,26.3895407 9.97154082,25.5498367 C10.4521308,24.7588156 10.7834861,23.695315 11.0065147,22.3407544 C11.8165474,21.6230173 12.653675,20.929518 13.5130098,20.2555853 C14.0784442,20.5361094 14.6699641,20.7789536 15.2821505,20.9810036 C15.4321821,21.1140774 15.5723852,21.2371344 15.6997315,21.3465414 C15.7033441,21.3515239 15.7053098,21.357233 15.7089225,21.3622674 C16.0836297,21.8875041 16.5544442,22.2657057 17.1230662,22.4980659 C17.6919008,22.7300627 18.5094775,22.9679244 19.5773903,23.2133117 L19.7480354,23.2509917 C20.9812274,23.5200458 21.9596206,23.6706621 22.6851277,23.7033077 C23.4100503,23.7349154 24.1179191,23.6171523 24.8088934,23.3491881 C25.1289857,23.2175156 25.3183847,23.0219013 25.3777279,22.7620337 C25.4088074,22.6256382 25.408648,22.4072394 25.3753372,22.1034117 C25.3316134,21.7736855 25.3262475,21.5355125 25.3596646,21.3885811 C25.3709807,21.3395867 25.386122,21.2924607 25.4042385,21.2474108 C25.5462479,21.1810296 25.6759848,21.117451 25.7931306,21.0566232 L26.0518608,20.9154009 C26.0727399,20.903308 26.097391,20.8900214 26.11742,20.8782399 C26.2470507,20.7917731 26.3824192,20.6512774 26.5229942,20.4620469 C26.9631011,20.262021 27.3866323,20.0369269 27.7931097,19.7908649 C28.6919181,20.4382244 29.6214342,21.1327098 30.5831986,21.8762416 C30.6917378,22.1424412 30.7728632,22.3281943 30.8385286,22.4578427 C30.9172102,22.6108984 30.974269,22.7296475 31.0078986,22.8061494 C31.0154427,22.8233286 31.0219242,22.8384317 31.0267057,22.8504208 L31.0267057,22.8633961 C31.0267057,22.9233935 31.0379687,22.9858302 31.0598571,23.0420388 C31.5302467,24.2555848 32.0147681,25.1831571 32.5535325,25.8431284 C33.0060713,26.3996614 33.5350072,26.7892293 34.1349743,26.8932386 C34.2470199,26.9792384 34.3898262,27.0153095 34.5315168,26.9940301 C35.0245386,26.9158674 35.5006659,26.659529 36.037624,26.2661724 C36.5148138,25.9132984 37.0355681,25.4420386 37.6112029,24.8483965 C38.9290268,24.6297382 39.9560847,24.310963 40.7106524,23.8417273 C41.4235151,23.4070057 41.8998549,22.7712201 41.9867713,22.0316847 C41.9953248,21.9946275 42,21.9562728 42,21.91688 L42,21.9027111 L42,21.8365375 C42,21.8052412 41.9968124,21.773945 41.9911277,21.744102 L41.9911277,21.744102 Z" id="Shape" fill="#000000"></path>
                            <path d="M39.3873982,20.0136509 C38.2409479,19.4445137 36.4379454,19.005438 34.0169396,18.7450523 C33.9515559,18.7375346 33.8855866,18.7173997 33.8279233,18.6866455 C33.1403832,18.3221685 32.5242966,17.9303019 31.9790778,17.5097839 C31.8799906,17.4747188 31.7961313,17.4210435 31.7310671,17.3652653 C31.235312,17.0567242 30.7034574,16.7284689 30.1395499,16.3828124 C30.9231422,15.2648832 31.3663455,13.9220014 31.2828056,12.3470171 C31.2258878,11.270777 30.9474748,10.2819104 30.5015561,9.38504359 C32.4070532,8.6509902 34.0278546,8.17889972 35.3713611,7.97571156 C35.4758791,7.95946702 35.586254,7.97697327 35.6808686,8.02397203 C35.8409202,8.10424844 36.0049118,8.21554193 36.2232655,8.3747279 C37.1184041,8.89581486 37.803069,9.25713756 38.2515434,9.45385945 L38.2728943,9.46353258 C38.8841357,9.77175824 39.3401175,9.89698313 39.4978796,9.88904487 C40.028403,9.88757287 40.3904624,9.76965539 40.65024,9.5721975 C40.8323878,9.29819576 40.920134,9.00574149 40.9224235,8.64173765 C40.9416445,8.09320846 40.4281059,7.03794429 39.2629137,5.69485213 C39.1843255,5.6023266 39.1405057,5.48446169 39.1405057,5.36391565 C39.14189,5.27459697 39.1497701,5.21829308 39.1638265,5.08739049 C39.1777765,4.96347988 39.1983819,4.79540936 39.2253234,4.5810235 L39.2285713,4.56036297 C39.3890488,3.61544601 39.4673707,2.97081645 39.4654007,2.72541351 C39.4666253,2.12447071 39.348956,1.71083954 39.1807049,1.4597589 C39.0202806,1.31487234 38.7577344,1.18123603 38.3670297,1.09223278 C37.9609375,1.19905771 37.2812243,1.55165358 36.4283615,2.16148093 C36.3405089,2.2405482 36.248024,2.29916522 36.1480849,2.35210454 C34.6679543,3.60661403 33.4830617,4.72722435 32.5970812,5.70568182 C32.5365427,5.77223712 32.4601375,5.82133873 32.3747874,5.8499901 C31.9161433,6.00129037 31.5155353,6.17482831 31.1724308,6.36860621 L31.1078458,6.39957072 C30.9668556,6.45471803 30.8523809,6.49761623 30.7547314,6.5295796 C30.6839701,6.54924127 30.6412684,6.56811438 30.570933,6.58078407 C30.0251818,6.81383274 29.4993438,7.03967915 28.9931528,7.258481 C28.0269867,6.24443274 26.8276651,5.41538298 25.5321314,4.78594652 C24.2515594,4.19309971 22.8010324,3.89749116 21.5760471,3.19739885 C20.7020997,2.69812899 19.9409231,2.02547891 19.202109,1.34257742 C18.8693871,2.21557682 18.2961087,2.91435485 17.3902681,3.42172069 C16.2887024,4.03859259 15.0982725,4.42041811 13.9640683,4.96369017 C13.10652,5.3746402 12.2869347,5.89898658 11.5606862,6.51554306 C10.9556211,6.28139038 10.3555609,6.05507084 9.76673526,5.84604725 C9.68670949,5.81776388 9.61658711,5.77139598 9.55929654,5.70962467 C7.89238584,3.90532429 6.68023236,2.68304102 5.96740135,2.08036337 C5.03909176,1.30956263 4.29612463,0.989035276 3.86937377,1.00028554 C3.24759004,1.00449125 2.96837837,1.15799951 2.83468263,1.34483799 L2.77904262,1.40976358 C2.62367655,1.54119188 2.43625758,2.0332069 2.44472338,2.88580862 C2.44435068,3.5126165 2.5689417,4.29850521 2.83148798,5.22612621 C2.87653243,5.38646875 2.8411784,5.55658955 2.73522279,5.68580986 C1.61773718,7.02900717 1.12522995,8.05572511 1.14934949,8.48202597 C1.14934949,8.56945208 1.12640132,8.65514334 1.0841788,8.73079347 C1.10249475,8.86863548 1.13587875,8.97509241 1.17565204,9.05331854 C1.23895919,9.1740223 1.30775047,9.24131359 1.4295728,9.30424147 C1.52163172,9.34976823 1.59484225,9.41910981 1.64425271,9.50169936 C1.83161843,9.58087177 2.16812067,9.65426134 2.65556972,9.64895163 C3.29364612,9.64995049 3.72364487,9.52372674 3.9729334,9.34550995 L4.0919338,9.28273979 C4.40996036,9.16981659 5.04958084,8.76391341 5.89110266,8.0845342 C6.0056838,7.99216638 6.1572163,7.95273789 6.30321141,7.97713098 C7.32155664,8.14504379 8.4270091,8.41746839 9.61600143,8.78914764 C8.70073663,10.3500428 8.37733242,12.1837831 9.0748824,14.1311826 C9.46526759,15.2214593 10.0731546,16.1691626 10.8314028,16.9817049 C10.1374734,17.447224 9.45845236,17.9225739 8.79460585,18.4077546 C8.72347183,18.4590117 8.64365904,18.4915533 8.55681803,18.503487 C5.63856624,18.8984554 3.56886449,19.3272797 2.41900652,19.746904 C2.36735982,19.8140375 2.2984088,19.8687643 2.21699869,19.9044076 C1.80792484,20.0853056 1.53856332,20.3152 1.35519089,20.6050782 C1.17267037,20.8958502 1.06932372,21.2655843 1.0685783,21.7536039 C1.0685783,21.8441843 1.04440552,21.9317682 1,22.0085749 C1.05068831,22.4530654 1.25030016,22.7234923 1.74381903,23.00007 C2.30346698,23.2973083 3.26691762,23.4827273 4.59812475,23.4798885 C4.73442945,23.4798885 4.86871088,23.5348255 4.9647631,23.6298745 C5.03834635,23.7024755 5.08781005,23.7963678 5.10751034,23.8964111 C5.62253979,24.6078062 6.11217185,25.1308383 6.55404402,25.4653496 C7.02216549,25.8204689 7.41899321,25.9592047 7.75613438,25.9586789 C7.82609703,25.9586789 7.89542075,25.9731886 7.95920709,26 C8.36024109,25.8996413 8.7045702,25.6282682 9.05156151,25.0695402 C9.45515123,24.4052489 9.7868615,23.3476716 9.99515213,21.920255 C10.0262999,21.7101275 10.1828906,21.5470512 10.3811181,21.4974239 C11.3619263,20.6230051 12.3811234,19.7845976 13.431628,18.9742632 C13.9114632,19.2376981 14.4124362,19.4710097 14.9278384,19.6725155 C15.5379084,19.9453607 16.2003173,20.168158 16.9179936,20.3324434 L16.9179936,20.817519 C16.9179936,20.8227235 16.9195909,20.8280332 16.9195909,20.8332904 L16.9195909,21.6066671 C16.9195909,21.9666229 17.5948316,22.2579732 18.4280474,22.2579732 C19.2613164,22.2579732 19.9367168,21.9666229 19.9367168,21.6066671 L19.9367168,20.7056472 C20.0549718,20.7082757 20.1729073,20.7123763 20.2919077,20.7123763 C20.4434934,20.7123763 20.5942273,20.7082757 20.7450144,20.7043329 L20.7450144,20.9196125 C20.7450144,20.923345 20.7463987,20.9271827 20.7468779,20.930705 L20.7468779,21.7088132 C20.7468779,22.0386982 21.1836919,22.3060234 21.7226279,22.3060234 C22.2610847,22.3060234 22.6983779,22.0386982 22.6983779,21.7088132 L22.6983779,20.5316361 C22.8561932,20.507979 23.0133696,20.4825345 23.1689486,20.454146 L23.1689486,21.2309398 C23.1689486,21.5602466 23.6057626,21.8272038 24.1447519,21.8272038 C24.6834749,21.8272038 25.1206084,21.5602466 25.1206084,21.2309398 L25.1206084,19.9570315 C25.6549654,19.7804445 26.1137159,19.5555969 26.511928,19.2918992 C26.9824987,19.0672093 27.434647,18.8140784 27.8620367,18.5339784 C28.9925139,19.3435768 30.1717626,20.2295613 31.3997295,21.1921948 C31.5171858,21.2849306 31.589225,21.4251909 31.5954013,21.5732843 C31.6825085,21.7863033 31.7485844,21.9359213 31.7841514,22.0048423 C31.91018,22.2560806 31.9892474,22.4203135 32.0398824,22.5670926 C32.0550037,22.6208205 32.0751832,22.657673 32.0808803,22.7773779 C32.5168957,23.9039288 32.9633468,24.7342928 33.3848798,25.2519626 C33.8238768,25.7897147 34.1851907,25.9604138 34.4782458,25.9586789 C34.5295198,25.9586789 34.5802081,25.9664595 34.6291394,25.9812846 C34.8388144,25.9010082 35.1177066,25.7463959 35.4400459,25.5033061 C35.902417,25.1577023 36.4584976,24.6430816 37.0930599,23.9644384 C37.2376707,23.810089 37.4645967,23.7583062 37.6633567,23.8347449 C37.6665513,23.8360066 37.6697992,23.8373735 37.6731003,23.8386352 C38.8108187,23.6345007 39.6557481,23.341363 40.1898922,23.0013317 C40.7470376,22.6375907 40.9605994,22.2947731 41,21.8636357 C40.9511752,21.1729011 40.5090901,20.5808429 39.3873982,20.0136509 L39.3873982,20.0136509 Z M27.8164132,15.9197099 C26.0117191,15.916099 24.9570593,13.4993019 23.0794298,13.815061 C20.8142862,14.1962429 18.9511995,15.64329 16.6330271,15.9294497 C14.7221647,16.16539 12.0553513,15.8940064 12,13.8016153 C12.0054743,13.7343871 12.0113357,13.6671113 12.0166994,13.5997405 C12.3177306,12.1753087 13.6402993,10.7481213 15.2388501,10.2776184 C17.90688,9.49235409 20.0651365,10.5175497 22.3754016,11.5548131 C23.1842156,11.9180833 23.9565895,12.2121298 24.8610102,11.9203164 C25.9152276,11.5798515 26.8536553,11.04079 27.873921,10.6386556 C28.6380006,10.33772 29.7288239,9.97668275 30.4340686,10.6047326 C30.9876917,11.0976608 31.0959059,11.7505115 30.9269767,12.4041224 C30.6358435,13.5327973 29.4771167,15.9234633 27.8164132,15.9197099 L27.8164132,15.9197099 Z" id="Shape" fill="#FFFFFF"></path>
                        </g>
                    </g>
                </g>
            </g>
        </g>
    </g>
</svg>